<mxfile host="Electron" modified="2024-07-05T06:54:18.902Z" agent="Mozilla/5.0 (Windows NT 10.0; Win64; x64) AppleWebKit/537.36 (KHTML, like Gecko) draw.io/23.1.5 Chrome/120.0.6099.109 Electron/28.1.0 Safari/537.36" etag="EOrFqJxLz9Sg0k3xerJD" version="23.1.5" type="device">
  <diagram name="Page-1" id="3TUpHSHA1gtK3B0JEU8y">
    <mxGraphModel dx="250" dy="152" grid="1" gridSize="10" guides="1" tooltips="1" connect="1" arrows="1" fold="1" page="1" pageScale="1" pageWidth="583" pageHeight="413" math="0" shadow="0">
      <root>
        <mxCell id="0" />
        <mxCell id="1" parent="0" />
        <mxCell id="nw0UZW-xQefEUAk0dn4Y-22" value="" style="endArrow=classicThin;html=1;rounded=0;strokeWidth=0.2;strokeColor=#007FFF;endFill=1;endSize=4;startArrow=classicThin;startFill=1;startSize=4;" parent="1" edge="1">
          <mxGeometry width="50" height="50" relative="1" as="geometry">
            <mxPoint x="90" y="198" as="sourcePoint" />
            <mxPoint x="90" y="78" as="targetPoint" />
          </mxGeometry>
        </mxCell>
        <mxCell id="nw0UZW-xQefEUAk0dn4Y-40" value="" style="ellipse;whiteSpace=wrap;html=1;aspect=fixed;fillColor=none;connectable=0;allowArrows=0;" parent="1" vertex="1">
          <mxGeometry x="262" y="100" width="80" height="80" as="geometry" />
        </mxCell>
        <mxCell id="nw0UZW-xQefEUAk0dn4Y-41" value="" style="ellipse;whiteSpace=wrap;html=1;aspect=fixed;fillColor=none;connectable=0;allowArrows=0;" parent="1" vertex="1">
          <mxGeometry x="272" y="110" width="60" height="60" as="geometry" />
        </mxCell>
        <mxCell id="QgdDYN5rGUicbWpnFUVR-1" value="" style="endArrow=none;html=1;rounded=0;" parent="1" edge="1">
          <mxGeometry width="50" height="50" relative="1" as="geometry">
            <mxPoint x="141" y="80" as="sourcePoint" />
            <mxPoint x="141" y="80" as="targetPoint" />
            <Array as="points">
              <mxPoint x="170" y="80" />
              <mxPoint x="170" y="90" />
              <mxPoint x="180" y="110" />
              <mxPoint x="180" y="190" />
              <mxPoint x="165" y="193" />
              <mxPoint x="165" y="200" />
              <mxPoint x="115" y="200" />
              <mxPoint x="115" y="195" />
              <mxPoint x="100" y="190" />
              <mxPoint x="100" y="110" />
              <mxPoint x="110" y="90" />
              <mxPoint x="110" y="80" />
            </Array>
          </mxGeometry>
        </mxCell>
        <mxCell id="QgdDYN5rGUicbWpnFUVR-4" value="&lt;div style=&quot;&quot;&gt;&lt;span style=&quot;background-color: initial;&quot;&gt;can&lt;/span&gt;&lt;/div&gt;&lt;div style=&quot;&quot;&gt;&lt;span style=&quot;background-color: initial;&quot;&gt;height&lt;/span&gt;&lt;/div&gt;" style="text;html=1;align=right;verticalAlign=middle;whiteSpace=wrap;rounded=0;fontSize=10;fontColor=#007FFF;allowArrows=0;connectable=0;spacingLeft=2;spacingTop=2;spacingBottom=2;spacingRight=2;" parent="1" vertex="1">
          <mxGeometry x="40" y="120" width="50" height="40" as="geometry" />
        </mxCell>
        <mxCell id="QgdDYN5rGUicbWpnFUVR-5" value="" style="endArrow=classicThin;html=1;rounded=0;strokeWidth=0.2;strokeColor=#007FFF;endFill=1;endSize=4;startArrow=classicThin;startFill=1;startSize=4;" parent="1" edge="1">
          <mxGeometry width="50" height="50" relative="1" as="geometry">
            <mxPoint x="100" y="140" as="sourcePoint" />
            <mxPoint x="180" y="140" as="targetPoint" />
          </mxGeometry>
        </mxCell>
        <mxCell id="QgdDYN5rGUicbWpnFUVR-6" value="&lt;div style=&quot;&quot;&gt;&lt;span style=&quot;background-color: initial;&quot;&gt;can size&lt;/span&gt;&lt;/div&gt;" style="text;html=1;align=center;verticalAlign=bottom;whiteSpace=wrap;rounded=0;fontSize=10;fontColor=#007FFF;allowArrows=0;connectable=0;spacingLeft=2;spacingTop=2;spacingBottom=2;spacingRight=2;" parent="1" vertex="1">
          <mxGeometry x="111" y="120" width="60" height="20" as="geometry" />
        </mxCell>
        <mxCell id="nw0UZW-xQefEUAk0dn4Y-36" value="" style="ellipse;whiteSpace=wrap;html=1;aspect=fixed;connectable=0;fillColor=#007FFF;strokeColor=none;" parent="1" vertex="1">
          <mxGeometry x="138" y="198" width="4" height="4" as="geometry" />
        </mxCell>
        <mxCell id="QgdDYN5rGUicbWpnFUVR-13" value="&lt;div style=&quot;&quot;&gt;&lt;span style=&quot;background-color: initial;&quot;&gt;origin&lt;/span&gt;&lt;/div&gt;" style="text;html=1;align=center;verticalAlign=middle;whiteSpace=wrap;rounded=0;fontSize=10;fontColor=#007FFF;allowArrows=0;connectable=0;spacingLeft=2;spacingTop=2;spacingBottom=2;spacingRight=2;" parent="1" vertex="1">
          <mxGeometry x="110" y="216" width="60" height="18" as="geometry" />
        </mxCell>
        <mxCell id="QgdDYN5rGUicbWpnFUVR-16" value="" style="ellipse;whiteSpace=wrap;html=1;aspect=fixed;connectable=0;fillColor=#007FFF;strokeColor=none;" parent="1" vertex="1">
          <mxGeometry x="300" y="138" width="4" height="4" as="geometry" />
        </mxCell>
        <mxCell id="vKmyMk4U30r1ylPIldxQ-1" value="" style="endArrow=classicThin;html=1;rounded=0;strokeWidth=0.2;strokeColor=#007FFF;endFill=1;endSize=4;startArrow=classicThin;startFill=1;startSize=4;" parent="1" edge="1">
          <mxGeometry width="50" height="50" relative="1" as="geometry">
            <mxPoint x="200" y="110" as="sourcePoint" />
            <mxPoint x="200" y="78" as="targetPoint" />
          </mxGeometry>
        </mxCell>
        <mxCell id="vKmyMk4U30r1ylPIldxQ-2" value="&lt;div style=&quot;&quot;&gt;&lt;span style=&quot;background-color: initial;&quot;&gt;neck&lt;/span&gt;&lt;/div&gt;&lt;div style=&quot;&quot;&gt;&lt;span style=&quot;background-color: initial;&quot;&gt;height&lt;/span&gt;&lt;/div&gt;" style="text;html=1;align=left;verticalAlign=middle;whiteSpace=wrap;rounded=0;fontSize=10;fontColor=#007FFF;allowArrows=0;connectable=0;spacingLeft=2;spacingTop=2;spacingBottom=2;spacingRight=2;" parent="1" vertex="1">
          <mxGeometry x="200" y="80" width="50" height="29.64" as="geometry" />
        </mxCell>
        <mxCell id="vKmyMk4U30r1ylPIldxQ-3" value="" style="endArrow=classicThin;html=1;rounded=0;strokeWidth=0.2;strokeColor=#007FFF;endFill=1;endSize=4;startArrow=classicThin;startFill=1;startSize=4;" parent="1" edge="1">
          <mxGeometry width="50" height="50" relative="1" as="geometry">
            <mxPoint x="190" y="200" as="sourcePoint" />
            <mxPoint x="190" y="189" as="targetPoint" />
          </mxGeometry>
        </mxCell>
        <mxCell id="vKmyMk4U30r1ylPIldxQ-5" value="" style="endArrow=classicThin;html=1;rounded=0;strokeWidth=0.2;strokeColor=#007FFF;endFill=1;endSize=4;startArrow=classicThin;startFill=1;startSize=4;" parent="1" edge="1">
          <mxGeometry width="50" height="50" relative="1" as="geometry">
            <mxPoint x="111" y="69.64" as="sourcePoint" />
            <mxPoint x="170" y="70" as="targetPoint" />
          </mxGeometry>
        </mxCell>
        <mxCell id="vKmyMk4U30r1ylPIldxQ-6" value="&lt;div style=&quot;&quot;&gt;&lt;span style=&quot;background-color: initial;&quot;&gt;neck size&lt;/span&gt;&lt;/div&gt;" style="text;html=1;align=center;verticalAlign=bottom;whiteSpace=wrap;rounded=0;fontSize=10;fontColor=#007FFF;allowArrows=0;connectable=0;spacingLeft=2;spacingTop=2;spacingBottom=2;spacingRight=2;" parent="1" vertex="1">
          <mxGeometry x="110" y="49.64" width="60" height="20" as="geometry" />
        </mxCell>
        <mxCell id="vKmyMk4U30r1ylPIldxQ-7" value="" style="endArrow=classicThin;html=1;rounded=0;strokeWidth=0.2;strokeColor=#007FFF;endFill=1;endSize=4;startArrow=classicThin;startFill=1;startSize=4;" parent="1" edge="1">
          <mxGeometry width="50" height="50" relative="1" as="geometry">
            <mxPoint x="110" y="230" as="sourcePoint" />
            <mxPoint x="169" y="230.36" as="targetPoint" />
          </mxGeometry>
        </mxCell>
        <mxCell id="vKmyMk4U30r1ylPIldxQ-8" value="&lt;div style=&quot;&quot;&gt;&lt;span style=&quot;background-color: initial;&quot;&gt;neck size&lt;/span&gt;&lt;/div&gt;" style="text;html=1;align=center;verticalAlign=bottom;whiteSpace=wrap;rounded=0;fontSize=10;fontColor=#007FFF;allowArrows=0;connectable=0;spacingLeft=2;spacingTop=2;spacingBottom=2;spacingRight=2;" parent="1" vertex="1">
          <mxGeometry x="110" y="231" width="60" height="20" as="geometry" />
        </mxCell>
        <mxCell id="vKmyMk4U30r1ylPIldxQ-11" value="" style="endArrow=none;html=1;rounded=0;strokeWidth=0.2;dashed=1;" parent="1" edge="1">
          <mxGeometry width="50" height="50" relative="1" as="geometry">
            <mxPoint x="115" y="80" as="sourcePoint" />
            <mxPoint x="165" y="80" as="targetPoint" />
            <Array as="points">
              <mxPoint x="115" y="100" />
              <mxPoint x="165" y="100" />
            </Array>
          </mxGeometry>
        </mxCell>
        <mxCell id="vKmyMk4U30r1ylPIldxQ-12" value="" style="endArrow=none;html=1;rounded=0;strokeWidth=0.2;dashed=1;strokeColor=#007FFF;" parent="1" edge="1">
          <mxGeometry width="50" height="50" relative="1" as="geometry">
            <mxPoint x="115" y="93" as="sourcePoint" />
            <mxPoint x="115" y="190" as="targetPoint" />
          </mxGeometry>
        </mxCell>
        <mxCell id="vKmyMk4U30r1ylPIldxQ-13" value="" style="endArrow=none;html=1;rounded=0;strokeWidth=0.2;dashed=1;strokeColor=#007FFF;" parent="1" edge="1">
          <mxGeometry width="50" height="50" relative="1" as="geometry">
            <mxPoint x="165" y="93.5" as="sourcePoint" />
            <mxPoint x="165" y="190.5" as="targetPoint" />
          </mxGeometry>
        </mxCell>
        <mxCell id="vKmyMk4U30r1ylPIldxQ-14" value="" style="endArrow=none;html=1;rounded=0;strokeWidth=0.2;dashed=1;curved=1;" parent="1" edge="1">
          <mxGeometry width="50" height="50" relative="1" as="geometry">
            <mxPoint x="120" y="200" as="sourcePoint" />
            <mxPoint x="160" y="200" as="targetPoint" />
            <Array as="points">
              <mxPoint x="120" y="190" />
              <mxPoint x="140" y="180" />
              <mxPoint x="160" y="190" />
            </Array>
          </mxGeometry>
        </mxCell>
        <mxCell id="vKmyMk4U30r1ylPIldxQ-57" value="" style="endArrow=classicThin;html=1;rounded=0;strokeWidth=0.2;strokeColor=#007FFF;endFill=1;endSize=4;startArrow=classicThin;startFill=1;startSize=4;" parent="1" edge="1">
          <mxGeometry width="50" height="50" relative="1" as="geometry">
            <mxPoint x="180" y="91" as="sourcePoint" />
            <mxPoint x="180" y="80" as="targetPoint" />
          </mxGeometry>
        </mxCell>
        <mxCell id="vKmyMk4U30r1ylPIldxQ-59" value="&lt;div style=&quot;&quot;&gt;&lt;span style=&quot;background-color: initial;&quot;&gt;nK&lt;/span&gt;&lt;/div&gt;" style="text;html=1;align=left;verticalAlign=middle;whiteSpace=wrap;rounded=0;fontSize=10;fontColor=#007FFF;allowArrows=0;connectable=0;spacingLeft=2;spacingTop=2;spacingBottom=2;spacingRight=2;" parent="1" vertex="1">
          <mxGeometry x="190" y="189" width="20" height="11" as="geometry" />
        </mxCell>
        <mxCell id="vKmyMk4U30r1ylPIldxQ-60" value="&lt;div style=&quot;&quot;&gt;&lt;span style=&quot;background-color: initial;&quot;&gt;nP&lt;/span&gt;&lt;/div&gt;" style="text;html=1;align=left;verticalAlign=middle;whiteSpace=wrap;rounded=0;fontSize=10;fontColor=#007FFF;allowArrows=0;connectable=0;spacingLeft=2;spacingTop=2;spacingBottom=2;spacingRight=2;" parent="1" vertex="1">
          <mxGeometry x="180" y="80" width="20" height="11" as="geometry" />
        </mxCell>
        <mxCell id="vKmyMk4U30r1ylPIldxQ-61" value="" style="endArrow=classicThin;html=1;rounded=0;strokeWidth=0.2;strokeColor=#007FFF;endFill=1;endSize=4;startArrow=classicThin;startFill=1;startSize=4;" parent="1" edge="1">
          <mxGeometry width="50" height="50" relative="1" as="geometry">
            <mxPoint x="261" y="89.64" as="sourcePoint" />
            <mxPoint x="341" y="89.64" as="targetPoint" />
          </mxGeometry>
        </mxCell>
        <mxCell id="vKmyMk4U30r1ylPIldxQ-62" value="&lt;div style=&quot;&quot;&gt;&lt;span style=&quot;background-color: initial;&quot;&gt;can size&lt;/span&gt;&lt;/div&gt;" style="text;html=1;align=center;verticalAlign=bottom;whiteSpace=wrap;rounded=0;fontSize=10;fontColor=#007FFF;allowArrows=0;connectable=0;spacingLeft=2;spacingTop=2;spacingBottom=2;spacingRight=2;" parent="1" vertex="1">
          <mxGeometry x="272" y="69.64" width="60" height="20" as="geometry" />
        </mxCell>
        <mxCell id="vKmyMk4U30r1ylPIldxQ-65" value="" style="endArrow=classicThin;html=1;rounded=0;strokeWidth=0.2;strokeColor=#007FFF;endFill=1;endSize=4;startArrow=classicThin;startFill=1;startSize=4;" parent="1" edge="1">
          <mxGeometry width="50" height="50" relative="1" as="geometry">
            <mxPoint x="273" y="186" as="sourcePoint" />
            <mxPoint x="332" y="186.36" as="targetPoint" />
          </mxGeometry>
        </mxCell>
        <mxCell id="vKmyMk4U30r1ylPIldxQ-66" value="&lt;div style=&quot;&quot;&gt;&lt;span style=&quot;background-color: initial;&quot;&gt;neck size&lt;/span&gt;&lt;/div&gt;" style="text;html=1;align=center;verticalAlign=bottom;whiteSpace=wrap;rounded=0;fontSize=10;fontColor=#007FFF;allowArrows=0;connectable=0;spacingLeft=2;spacingTop=2;spacingBottom=2;spacingRight=2;" parent="1" vertex="1">
          <mxGeometry x="273" y="187" width="60" height="20" as="geometry" />
        </mxCell>
        <mxCell id="vKmyMk4U30r1ylPIldxQ-67" value="" style="endArrow=classicThin;html=1;rounded=0;strokeWidth=0.2;strokeColor=#007FFF;endFill=1;endSize=4;startArrow=none;startFill=0;startSize=4;curved=1;" parent="1" edge="1">
          <mxGeometry width="50" height="50" relative="1" as="geometry">
            <mxPoint x="151" y="113" as="sourcePoint" />
            <mxPoint x="167" y="90" as="targetPoint" />
            <Array as="points">
              <mxPoint x="168" y="112" />
            </Array>
          </mxGeometry>
        </mxCell>
        <mxCell id="vKmyMk4U30r1ylPIldxQ-68" value="&lt;div style=&quot;&quot;&gt;&lt;span style=&quot;background-color: initial;&quot;&gt;nP&lt;/span&gt;&lt;/div&gt;" style="text;html=1;align=left;verticalAlign=middle;whiteSpace=wrap;rounded=0;fontSize=10;fontColor=#007FFF;allowArrows=0;connectable=0;spacingLeft=2;spacingTop=2;spacingBottom=2;spacingRight=2;" parent="1" vertex="1">
          <mxGeometry x="131" y="105.5" width="20" height="14.5" as="geometry" />
        </mxCell>
        <mxCell id="vKmyMk4U30r1ylPIldxQ-69" value="" style="endArrow=classicThin;html=1;rounded=0;strokeWidth=0.2;strokeColor=#007FFF;endFill=1;endSize=4;startArrow=classicThin;startFill=1;startSize=4;" parent="1" edge="1">
          <mxGeometry width="50" height="50" relative="1" as="geometry">
            <mxPoint x="140" y="100" as="sourcePoint" />
            <mxPoint x="140" y="80" as="targetPoint" />
          </mxGeometry>
        </mxCell>
        <mxCell id="vKmyMk4U30r1ylPIldxQ-70" value="&lt;div style=&quot;&quot;&gt;&lt;span style=&quot;background-color: initial;&quot;&gt;nL&lt;/span&gt;&lt;/div&gt;" style="text;html=1;align=left;verticalAlign=middle;whiteSpace=wrap;rounded=0;fontSize=10;fontColor=#007FFF;allowArrows=0;connectable=0;spacingLeft=2;spacingTop=2;spacingBottom=2;spacingRight=2;" parent="1" vertex="1">
          <mxGeometry x="140" y="83" width="20" height="11" as="geometry" />
        </mxCell>
        <mxCell id="vKmyMk4U30r1ylPIldxQ-71" value="&lt;div style=&quot;&quot;&gt;&lt;span style=&quot;background-color: initial;&quot;&gt;2nL&lt;/span&gt;&lt;/div&gt;" style="text;html=1;align=left;verticalAlign=middle;whiteSpace=wrap;rounded=0;fontSize=10;fontColor=#007FFF;allowArrows=0;connectable=0;spacingLeft=2;spacingTop=2;spacingBottom=2;spacingRight=2;" parent="1" vertex="1">
          <mxGeometry x="140" y="185" width="20" height="11" as="geometry" />
        </mxCell>
        <mxCell id="vKmyMk4U30r1ylPIldxQ-72" value="" style="endArrow=classicThin;html=1;rounded=0;strokeWidth=0.2;strokeColor=#007FFF;endFill=1;endSize=4;startArrow=classicThin;startFill=1;startSize=4;" parent="1" edge="1">
          <mxGeometry width="50" height="50" relative="1" as="geometry">
            <mxPoint x="140" y="198" as="sourcePoint" />
            <mxPoint x="140" y="182" as="targetPoint" />
          </mxGeometry>
        </mxCell>
        <mxCell id="_yC1xBLdqxrplw88gGCU-1" value="" style="rounded=1;whiteSpace=wrap;html=1;fillColor=none;strokeWidth=0.2;arcSize=41;" parent="1" vertex="1">
          <mxGeometry x="293.5" y="115" width="17" height="34" as="geometry" />
        </mxCell>
        <mxCell id="_yC1xBLdqxrplw88gGCU-2" value="" style="ellipse;whiteSpace=wrap;html=1;fillColor=none;strokeColor=default;strokeWidth=0.1;" parent="1" vertex="1">
          <mxGeometry x="295.2" y="132.85" width="13.599999999999998" height="13.6" as="geometry" />
        </mxCell>
        <mxCell id="_yC1xBLdqxrplw88gGCU-3" value="" style="ellipse;whiteSpace=wrap;html=1;fillColor=none;strokeColor=default;strokeWidth=0.1;" parent="1" vertex="1">
          <mxGeometry x="295.2" y="116.7" width="13.599999999999998" height="13.6" as="geometry" />
        </mxCell>
        <mxCell id="_yC1xBLdqxrplw88gGCU-9" value="" style="group" parent="1" vertex="1" connectable="0">
          <mxGeometry x="390" y="99.65" width="40" height="80" as="geometry" />
        </mxCell>
        <mxCell id="_yC1xBLdqxrplw88gGCU-5" value="" style="ellipse;whiteSpace=wrap;html=1;aspect=fixed;connectable=0;fillColor=#007FFF;strokeColor=none;" parent="_yC1xBLdqxrplw88gGCU-9" vertex="1">
          <mxGeometry x="15.294117647058822" y="55.11764705882352" width="9.411764705882351" height="9.411764705882351" as="geometry" />
        </mxCell>
        <mxCell id="_yC1xBLdqxrplw88gGCU-6" value="" style="rounded=1;whiteSpace=wrap;html=1;fillColor=none;strokeWidth=0.2;arcSize=41;" parent="_yC1xBLdqxrplw88gGCU-9" vertex="1">
          <mxGeometry width="40" height="80" as="geometry" />
        </mxCell>
        <mxCell id="_yC1xBLdqxrplw88gGCU-7" value="" style="ellipse;whiteSpace=wrap;html=1;fillColor=none;strokeColor=default;strokeWidth=0.1;" parent="_yC1xBLdqxrplw88gGCU-9" vertex="1">
          <mxGeometry x="3.9999999999999734" y="43.999999999999986" width="31.999999999999993" height="32" as="geometry" />
        </mxCell>
        <mxCell id="_yC1xBLdqxrplw88gGCU-8" value="" style="ellipse;whiteSpace=wrap;html=1;fillColor=none;strokeColor=default;strokeWidth=0.1;" parent="_yC1xBLdqxrplw88gGCU-9" vertex="1">
          <mxGeometry x="3.9999999999999734" y="4.000000000000006" width="31.999999999999993" height="32" as="geometry" />
        </mxCell>
        <mxCell id="_yC1xBLdqxrplw88gGCU-10" value="" style="endArrow=classicThin;html=1;rounded=0;strokeWidth=0.2;strokeColor=#007FFF;endFill=1;endSize=4;startArrow=classicThin;startFill=1;startSize=4;" parent="1" edge="1">
          <mxGeometry width="50" height="50" relative="1" as="geometry">
            <mxPoint x="440" y="100" as="sourcePoint" />
            <mxPoint x="440" y="180" as="targetPoint" />
          </mxGeometry>
        </mxCell>
        <mxCell id="_yC1xBLdqxrplw88gGCU-11" value="&lt;div style=&quot;&quot;&gt;&lt;span style=&quot;background-color: initial;&quot;&gt;tag size&lt;/span&gt;&lt;/div&gt;" style="text;html=1;align=left;verticalAlign=bottom;whiteSpace=wrap;rounded=0;fontSize=10;fontColor=#007FFF;allowArrows=0;connectable=0;spacingLeft=2;spacingTop=2;spacingBottom=2;spacingRight=2;" parent="1" vertex="1">
          <mxGeometry x="440" y="120" width="30" height="40" as="geometry" />
        </mxCell>
        <mxCell id="_yC1xBLdqxrplw88gGCU-12" value="&lt;div style=&quot;&quot;&gt;&lt;span style=&quot;background-color: initial;&quot;&gt;tag width&lt;/span&gt;&lt;/div&gt;" style="text;html=1;align=center;verticalAlign=bottom;whiteSpace=wrap;rounded=0;fontSize=10;fontColor=#007FFF;allowArrows=0;connectable=0;spacingLeft=2;spacingTop=2;spacingBottom=2;spacingRight=2;" parent="1" vertex="1">
          <mxGeometry x="390" y="191" width="40" height="31" as="geometry" />
        </mxCell>
        <mxCell id="_yC1xBLdqxrplw88gGCU-13" value="" style="endArrow=classicThin;html=1;rounded=0;strokeWidth=0.2;strokeColor=#007FFF;endFill=1;endSize=4;startArrow=classicThin;startFill=1;startSize=4;" parent="1" edge="1">
          <mxGeometry width="50" height="50" relative="1" as="geometry">
            <mxPoint x="390" y="189" as="sourcePoint" />
            <mxPoint x="430" y="189" as="targetPoint" />
          </mxGeometry>
        </mxCell>
        <mxCell id="_yC1xBLdqxrplw88gGCU-14" value="&lt;div style=&quot;&quot;&gt;&lt;span style=&quot;background-color: initial;&quot;&gt;nP&lt;/span&gt;&lt;/div&gt;" style="text;html=1;align=left;verticalAlign=middle;whiteSpace=wrap;rounded=0;fontSize=10;fontColor=#007FFF;allowArrows=0;connectable=0;spacingLeft=2;spacingTop=2;spacingBottom=2;spacingRight=2;" parent="1" vertex="1">
          <mxGeometry x="360" y="95.5" width="20" height="14.5" as="geometry" />
        </mxCell>
        <mxCell id="_yC1xBLdqxrplw88gGCU-15" value="" style="endArrow=classicThin;html=1;rounded=0;strokeWidth=0.2;strokeColor=#007FFF;endFill=1;endSize=4;startArrow=none;startFill=0;startSize=4;curved=1;" parent="1" edge="1">
          <mxGeometry width="50" height="50" relative="1" as="geometry">
            <mxPoint x="377" y="105" as="sourcePoint" />
            <mxPoint x="392" y="119" as="targetPoint" />
            <Array as="points">
              <mxPoint x="394" y="104" />
            </Array>
          </mxGeometry>
        </mxCell>
        <mxCell id="_yC1xBLdqxrplw88gGCU-16" value="" style="endArrow=classicThin;html=1;rounded=0;strokeWidth=0.2;strokeColor=#007FFF;endFill=1;endSize=4;startArrow=none;startFill=0;startSize=4;curved=1;" parent="1" edge="1">
          <mxGeometry width="50" height="50" relative="1" as="geometry">
            <mxPoint x="377" y="103" as="sourcePoint" />
            <mxPoint x="410" y="102" as="targetPoint" />
            <Array as="points">
              <mxPoint x="394" y="102" />
            </Array>
          </mxGeometry>
        </mxCell>
        <mxCell id="_yC1xBLdqxrplw88gGCU-18" value="" style="endArrow=classicThin;html=1;rounded=0;strokeWidth=0.2;strokeColor=#007FFF;endFill=1;endSize=4;startArrow=classicThin;startFill=1;startSize=4;" parent="1" edge="1">
          <mxGeometry width="50" height="50" relative="1" as="geometry">
            <mxPoint x="384" y="146.45" as="sourcePoint" />
            <mxPoint x="384" y="176" as="targetPoint" />
          </mxGeometry>
        </mxCell>
        <mxCell id="_yC1xBLdqxrplw88gGCU-20" value="&lt;div style=&quot;&quot;&gt;&lt;span style=&quot;background-color: initial;&quot;&gt;hole size&lt;/span&gt;&lt;/div&gt;" style="text;html=1;align=right;verticalAlign=bottom;whiteSpace=wrap;rounded=0;fontSize=10;fontColor=#007FFF;allowArrows=0;connectable=0;spacingLeft=2;spacingTop=2;spacingBottom=2;spacingRight=2;" parent="1" vertex="1">
          <mxGeometry x="346" y="146" width="40" height="31" as="geometry" />
        </mxCell>
        <mxCell id="c8EIDQd7NFbyLyoovA-4-1" value="7" style="ellipse;aspect=fixed;rotation=0;connectable=0;allowArrows=0;fillColor=none;strokeColor=none;strokeWidth=0.1;fontSize=4;spacing=0;spacingBottom=0;fontColor=#FF0000;" vertex="1" parent="1">
          <mxGeometry x="170" y="86.99999999999999" width="5" height="5" as="geometry" />
        </mxCell>
        <mxCell id="c8EIDQd7NFbyLyoovA-4-2" value="0b" style="ellipse;aspect=fixed;rotation=0;connectable=0;allowArrows=0;fillColor=none;strokeColor=none;strokeWidth=0.1;fontSize=4;spacing=0;spacingBottom=0;fontColor=#FF0000;" vertex="1" parent="1">
          <mxGeometry x="137" y="202" width="6" height="6" as="geometry" />
        </mxCell>
        <mxCell id="c8EIDQd7NFbyLyoovA-4-3" value="0a" style="ellipse;aspect=fixed;rotation=0;connectable=0;allowArrows=0;fillColor=none;strokeColor=none;strokeWidth=0.1;fontSize=4;spacing=0;spacingBottom=0;fontColor=#FF0000;" vertex="1" parent="1">
          <mxGeometry x="138" y="176" width="6" height="6" as="geometry" />
        </mxCell>
        <mxCell id="c8EIDQd7NFbyLyoovA-4-4" value="1" style="ellipse;aspect=fixed;rotation=0;connectable=0;allowArrows=0;fillColor=none;strokeColor=none;strokeWidth=0.1;fontSize=4;spacing=0;spacingBottom=0;fontColor=#FF0000;" vertex="1" parent="1">
          <mxGeometry x="157" y="184" width="6" height="6" as="geometry" />
        </mxCell>
        <mxCell id="c8EIDQd7NFbyLyoovA-4-5" value="2" style="ellipse;aspect=fixed;rotation=0;connectable=0;allowArrows=0;fillColor=none;strokeColor=none;strokeWidth=0.1;fontSize=4;spacing=0;spacingBottom=0;fontColor=#FF0000;" vertex="1" parent="1">
          <mxGeometry x="155" y="200" width="6" height="6" as="geometry" />
        </mxCell>
        <mxCell id="c8EIDQd7NFbyLyoovA-4-6" value="3" style="ellipse;aspect=fixed;rotation=0;connectable=0;allowArrows=0;fillColor=none;strokeColor=none;strokeWidth=0.1;fontSize=4;spacing=0;spacingBottom=0;fontColor=#FF0000;" vertex="1" parent="1">
          <mxGeometry x="161" y="200" width="6" height="6" as="geometry" />
        </mxCell>
        <mxCell id="c8EIDQd7NFbyLyoovA-4-7" value="9" style="ellipse;aspect=fixed;rotation=0;connectable=0;allowArrows=0;fillColor=none;strokeColor=none;strokeWidth=0.1;fontSize=4;spacing=0;spacingBottom=0;fontColor=#FF0000;" vertex="1" parent="1">
          <mxGeometry x="162" y="74" width="6" height="6" as="geometry" />
        </mxCell>
        <mxCell id="c8EIDQd7NFbyLyoovA-4-8" value="8" style="ellipse;aspect=fixed;rotation=0;connectable=0;allowArrows=0;fillColor=none;strokeColor=none;strokeWidth=0.1;fontSize=4;spacing=0;spacingBottom=0;fontColor=#FF0000;" vertex="1" parent="1">
          <mxGeometry x="169" y="74" width="6" height="6" as="geometry" />
        </mxCell>
        <mxCell id="c8EIDQd7NFbyLyoovA-4-9" value="6" style="ellipse;aspect=fixed;rotation=0;connectable=0;allowArrows=0;fillColor=none;strokeColor=none;strokeWidth=0.1;fontSize=4;spacing=0;spacingBottom=0;fontColor=#FF0000;" vertex="1" parent="1">
          <mxGeometry x="180" y="106.99999999999999" width="6" height="6" as="geometry" />
        </mxCell>
        <mxCell id="c8EIDQd7NFbyLyoovA-4-10" value="5" style="ellipse;aspect=fixed;rotation=0;connectable=0;allowArrows=0;fillColor=none;strokeColor=none;strokeWidth=0.1;fontSize=4;spacing=0;spacingBottom=0;fontColor=#FF0000;" vertex="1" parent="1">
          <mxGeometry x="180" y="190" width="5" height="5" as="geometry" />
        </mxCell>
        <mxCell id="c8EIDQd7NFbyLyoovA-4-11" value="4" style="ellipse;aspect=fixed;rotation=0;connectable=0;allowArrows=0;fillColor=none;strokeColor=none;strokeWidth=0.1;fontSize=4;spacing=0;spacingBottom=0;fontColor=#FF0000;" vertex="1" parent="1">
          <mxGeometry x="165" y="194" width="5" height="5" as="geometry" />
        </mxCell>
        <mxCell id="c8EIDQd7NFbyLyoovA-4-12" value="10" style="ellipse;aspect=fixed;rotation=0;connectable=0;allowArrows=0;fillColor=none;strokeColor=none;strokeWidth=0.1;fontSize=4;spacing=0;spacingBottom=0;fontColor=#FF0000;" vertex="1" parent="1">
          <mxGeometry x="161" y="101" width="6" height="6" as="geometry" />
        </mxCell>
        <mxCell id="c8EIDQd7NFbyLyoovA-4-13" value="11" style="ellipse;aspect=fixed;rotation=0;connectable=0;allowArrows=0;fillColor=none;strokeColor=none;strokeWidth=0.1;fontSize=4;spacing=0;spacingBottom=0;fontColor=#FF0000;" vertex="1" parent="1">
          <mxGeometry x="137" y="100.99999999999999" width="6" height="6" as="geometry" />
        </mxCell>
        <mxCell id="c8EIDQd7NFbyLyoovA-4-15" value="" style="endArrow=none;html=1;rounded=0;strokeWidth=0.2;dashed=1;strokeColor=#007FFF;" edge="1" parent="1">
          <mxGeometry width="50" height="50" relative="1" as="geometry">
            <mxPoint x="169.76" y="100" as="sourcePoint" />
            <mxPoint x="169.76" y="197" as="targetPoint" />
          </mxGeometry>
        </mxCell>
        <mxCell id="c8EIDQd7NFbyLyoovA-4-16" value="3b" style="ellipse;aspect=fixed;rotation=0;connectable=0;allowArrows=0;fillColor=none;strokeColor=none;strokeWidth=0.1;fontSize=4;spacing=0;spacingBottom=0;fontColor=#FF0000;" vertex="1" parent="1">
          <mxGeometry x="167" y="200" width="6" height="6" as="geometry" />
        </mxCell>
      </root>
    </mxGraphModel>
  </diagram>
</mxfile>
